<?xml version="1.0" encoding="UTF-8" standalone="no"?>
<!DOCTYPE svg PUBLIC "-//W3C//DTD SVG 1.1//EN" "http://www.w3.org/Graphics/SVG/1.1/DTD/svg11.dtd">
<svg t="1705581403113" class="icon" viewBox="0 0 1334 1024" version="1.1" xmlns="http://www.w3.org/2000/svg" p-id="5175" width="1334" height="1024" xmlns:xlink="http://www.w3.org/1999/xlink">
  <path d="M1097.614629 14.5152c-3.971657-0.650971-4.370286 8.276114-4.370286 8.276114s-15.908571 127.491657-30.690743 183.1168c-17.887086 67.317029-70.3488 75.293257-70.3488 75.293257s-6.173257 0.405943-6.440229 4.487315c-0.263314 4.074057 5.8624 4.483657 5.8624 4.483657s22.816914 6.773029 50.234515 15.747657c25.058743 8.195657 36.746971 43.885714 39.888457 54.941257-46.006857-0.168229-92.138057-0.735086-94.376229-1.718857-4.790857-2.117486-51.393829-23.983543-70.1184-21.156571-10.656914 1.609143-12.529371 9.885257-12.529371 9.885257l-1.726172 261.518628s-0.438857 13.736229 0 14.482286c3.3536 5.7088 35.708343 1.517714 54.487772-14.138514 14.5664-12.145371 31.363657-29.312 38.509714-36.783543 2.066286-2.161371 2.1504-2.428343 4.253257-3.796114 2.102857-1.367771 7.127771-0.804571 7.127772-0.804572l75.637028-0.343771c-2.208914 7.018057-14.025143 43.607771-29.5424 50.808685-13.842286 6.421943-66.442971 27.819886-66.442971 27.819886s-3.975314 2.512457-3.909486 4.7104c0.069486 2.197943 4.253257 4.022857 4.253257 4.022857s57.4464 25.1392 72.192 77.5936c14.639543 52.081371 32.416914 272.896 32.416915 272.896s2.490514 5.9648 4.7104 6.206172c2.219886 0.241371 4.714057-6.206171 4.714057-6.206172s10.4448-200.660114 36.209371-276.114285c26.016914-76.189257 65.525029-72.074971 65.525029-72.074972s9.680457-2.077257 9.537828-6.666971c-0.138971-4.589714-9.654857-5.979429-9.654857-5.979429s-36.227657-6.1184-63.451428-25.289143c-20.578743-14.485943-25.2928-41.472-26.441143-51.84l72.766171-0.347428s4.362971-0.138971 5.975772 0.347428c1.6128 0.482743 1.583543 1.451886 3.335314 4.253257 5.013943 8.023771 17.042286 24.981943 35.4048 35.748572 24.762514 14.522514 50.5088 19.273143 56.210286 17.1264 5.705143-2.143086 4.597029-7.932343 4.597028-7.932343s0.106057-203.483429 0.117029-213.463771c0.010971-9.980343 21.525943-21.8112 21.379657-30.690743-0.146286-8.879543-62.657829-39.160686-74.371657-38.165943-30.376229 2.581943-38.059886 22.747429-46.325029 24.832-3.192686 0.804571-43.465143 0.928914-80.007314 1.031314 2.7648-10.909257 11.5712-39.007086 32.643657-49.078857 29.487543-14.090971 57.706057-22.070857 57.706057-22.070857s6.703543-0.658286 6.5536-3.565714c-0.149943-2.907429-6.5536-3.909486-6.5536-3.909486s-42.0096-17.810286-54.831543-40.3456C1113.234286 181.021257 1102.902857 22.674286 1102.902857 22.674286s-1.320229-7.511771-5.288228-8.159086z m-89.5488 365.198629l64.9472 0.117028s5.002971-0.032914 5.635657 1.031314c0.629029 1.067886 0.910629 2.205257-1.152 7.127772-4.5056 10.762971-13.893486 29.754514-27.816229 41.614628-13.425371 11.435886-31.0784 16.226743-41.4976 18.161372-5.332114 0.991086-4.929829 0.427886-7.127771-0.6912-2.197943-1.115429-1.726171-3.679086-1.726172-3.675429l-0.226743-51.499885s-0.64-6.385371 1.609143-9.424458c2.245486-3.042743 7.354514-2.761143 7.354515-2.761142z m177.141028 0s5.123657-0.263314 7.358172 2.761142c2.102857 2.845257 1.609143 9.311086 1.609142 9.311086v0.226743l-0.2304 51.386514s0.446171 2.574629-1.722514 3.675429c-2.2016 1.119086-1.799314 1.682286-7.127771 0.6912-10.4192-1.934629-28.072229-6.725486-41.4976-18.161372-13.922743-11.860114-23.310629-30.851657-27.819886-41.614628-2.062629-4.922514-1.664-6.059886-1.034971-7.127772 0.603429-1.013029 5.518629-1.031314 5.518628-1.031314h0.113372l64.833828-0.117028z m-181.738057 98.399085c0.8448-0.168229 2.048-0.149943 4.714057 0.343772 10.4192 1.934629 28.072229 6.725486 41.4976 18.165028 13.922743 11.860114 23.310629 30.848 27.816229 41.610972 2.062629 4.926171 1.781029 6.176914 1.152 7.241143-0.632686 1.064229-5.635657 0.9216-5.635657 0.9216l-64.9472 0.2304s-5.109029 0.2816-7.354515-2.761143c-2.249143-3.039086-1.609143-9.424457-1.609143-9.424457l0.226743-51.499886s-0.471771-2.563657 1.726172-3.679086c1.1008-0.555886 1.568914-0.976457 2.413714-1.148343z m186.335086 0c0.848457 0.171886 1.316571 0.592457 2.417371 1.148343 2.197943 1.115429 1.722514 3.679086 1.722514 3.679086l0.2304 51.499886s0.636343 6.385371-1.609142 9.424457c-2.249143 3.042743-7.358171 2.761143-7.358172 2.761143l-64.9472-0.2304s-5.002971 0.142629-5.632-0.9216c-0.632686-1.064229-0.914286-2.314971 1.148343-7.241143 4.509257-10.762971 13.897143-29.754514 27.819886-41.610972 13.425371-11.435886 31.0784-16.2304 41.4976-18.165028 2.6624-0.493714 3.8656-0.512 4.7104-0.343772zM155.812571 179.584c-2.442971 0.073143-2.757486 3.565714-2.757485 3.565714s-4.995657 36.498286-25.402515 61.728915c-16.329143 20.187429-71.2704 34.256457-71.2704 34.256457s-2.578286 0.914286-2.186971 2.644114c0.394971 1.722514 2.069943 2.296686 2.069943 2.296686s21.796571 8.356571 37.244343 15.403885c12.781714 5.829486 12.068571 11.0336 12.068571 11.0336s8.6528 192.413257 2.069943 228.984686c-6.582857 36.571429-8.842971 52.7616-36.553143 97.247086a678.3488 678.3488 0 0 1-44.141714 62.533486c-2.212571 2.775771-1.034971 3.335314-1.034972 3.335314s-0.310857 0.468114 3.335315-0.6912c17.956571-5.705143 74.203429-25.910857 110.928457-65.060572 44.178286-47.100343 50.629486-78.423771 61.498514-119.0912 10.869029-40.667429 3.331657-209.097143 3.331657-209.097142s2.852571-6.568229 9.545143-10.920229c6.688914-4.352 18.157714-3.445029 18.157714-3.445029l171.509029 0.4608c-0.672914 0.629029-29.282743 27.479771-29.886171 28.6208-0.610743 1.155657-0.746057 9.168457 0.343771 10.5728 1.089829 1.408 27.615086 24.821029 24.027429 24.949029-3.591314 0.124343-69.749029 1.930971-82.307658-0.9216-12.558629-2.852571-46.098286-15.524571-51.957028-15.981714-9.201371-0.713143-19.6352-1.353143-21.266286-1.488457-5.237029-0.438857-10.075429 2.816-11.958857 6.893714-1.876114 4.085029-2.428343 213.277257 0.234057 217.029486 2.6624 3.748571 19.726629 1.792 40.118857-6.209829 20.388571-8.001829 34.216229-22.447543 40.693029-24.484571 0.914286-0.288914 43.680914-1.378743 43.680914-1.378743s11.194514 0.914286 13.908114 2.987885c2.717257 2.0736 1.609143 12.990171 1.609143 12.990172v199.672686s-0.329143 2.505143 1.495772 5.975771c1.821257 3.474286 5.5808 0.6656 9.311085-0.343771 10.196114-2.757486 26.704457-8.188343 42.989715-21.727086 22.250057-18.490514 30.529829-34.929371 35.291428-49.312914 4.765257-14.3872-2.958629-140.6464 1.148343-146.680686 0.610743-0.892343 2.3552-2.424686 4.253257-3.101257 1.901714-0.680229 33.247086-0.299886 36.5568-0.2304 3.309714 0.069486 4.7616-0.4096 5.632 1.378743 0.778971 1.594514 0.501029 9.621943 0.343772 16.208457-0.0768 3.221943 1.422629 5.365029 2.413714 5.749028 0.991086 0.380343 3.178057 1.9968 5.518629 1.952915 16.2048-0.299886 78.116571-2.391771 83.799771-19.770515 2.311314-7.061943 1.045943-137.431771 1.609143-140.931657 0.5632-3.503543 14.303086-10.697143 15.978057-21.496686 0.811886-5.229714-19.7632-15.433143-41.0368-26.320457-13.7216-7.029029-29.787429-10.989714-36.096-11.498057-7.530057-0.603429-17.250743 6.048914-23.332571 12.068572-4.399543 4.359314-5.5296 8.557714-9.084343 8.740571-13.776457 0.694857-68.962743 0.9984-74.488686 0.4608-5.522286-0.548571 23.983543-24.418743 24.6016-25.0624 0.618057-0.643657 1.269029-8.506514 0.113371-10.112-1.148343-1.601829-28.5184-28.982857-28.737828-29.198629l264.389486 0.687543s25.760914 5.467429 41.2672 20.348343c12.1856 11.688229 22.114743 42.525257 20.461714 43.567543-1.653029 1.034971-110.9504-0.833829-113.455543 0.453486-4.768914 2.4576-7.380114 8.111543-7.358171 11.267657 0.032914 4.450743 1.506743 8.334629 3.679085 8.619886 10.920229 1.429943 67.258514 0.318171 80.007315 0 1.488457-0.036571 6.802286 0.881371 8.045714 2.069942 1.243429 1.188571 0.4608 9.424457 0.4608 9.424458l-0.2304 361.870628s-0.080457 3.759543 1.378743 4.483657c1.4592 0.720457 2.223543 1.546971 7.701943-0.9216 9.987657-4.501943 26.141257-12.997486 37.588114-25.519543 17.729829-19.386514 20.498286-27.256686 25.058743-48.394971 4.564114-21.138286 2.069943-253.699657 2.069943-253.696 0 0-0.256-10.0352 0.6912-11.498057 0.943543-1.462857 2.987886-1.261714 2.987885-1.261714l72.992915 0.343771s12.481829-1.854171 15.060114-8.393143c2.578286-6.538971-2.874514-15.747657-2.874514-15.747657s-6.736457-12.295314-21.496686-31.722057c-9.508571-12.522057-26.503314-35.203657-33.909029-34.947657-18.900114 0.643657-52.417829 33.334857-52.417828 33.334857s-8.700343 1.660343-10.115657 0.234057c-1.418971-1.4336 3.616914-25.771886 25.863314-47.480686 22.250057-21.701486 61.845943-25.746286 61.845943-25.746285s8.283429-0.687543 8.045714-3.909486c-0.241371-3.218286-8.276114-3.218286-8.276114-3.218286s-45.432686-11.311543-63.915886-30.9248c-22.813257-24.199314-28.507429-61.264457-28.507429-61.264457s-0.848457-7.343543-3.792457-7.131429c-2.944 0.219429-3.104914 7.131429-3.104914 7.131429s-10.071771 41.728-22.301257 57.014857c-16.263314 20.333714-37.588114 23.797029-37.588114 23.797029l-482.106515 0.914285s-26.960457-8.623543-39.427657-31.378285c-9.640229-17.590857-19.2-54.026971-19.2-54.026972s-1.002057-3.6352-3.448686-3.562057z m174.153143 201.051429h170.704457s3.832686 0.117029 5.745372 2.183314c1.916343 2.066286 1.956571 6.0928 1.956571 6.0928l0.804572 114.490514s-0.362057 4.929829-2.300343 7.127772c-1.934629 2.197943-5.288229 1.378743-5.288229 1.378742h-171.739428s-3.254857-0.782629-4.827429-2.183314c-1.572571-1.404343-1.492114-3.448686-1.492114-3.448686l-0.113372-39.544685s-0.746057-4.128914 1.718858-6.3232c2.472229-2.190629 1.92-2.464914 8.1664-2.413715 33.828571 0.288914 143.118629 1.067886 153.230628-0.687542 6.140343-1.067886-6.304914-19.017143-12.990171-20.692115-6.685257-1.674971-145.872457 0.6912-145.872457 0.6912s-2.289371 0.018286-3.335315-1.034971c-1.045943-1.056914-0.917943-3.218286-0.917943-3.218286l-0.2304-45.750857s-0.318171-3.613257 1.378743-5.288229c1.696914-1.678629 5.4016-1.378743 5.4016-1.378742z m374.857143 18.622171l-55.292343 0.457143s-1.071543-0.138971-3.562057 2.413714c-2.486857 2.556343-2.413714 4.139886-2.413714 4.139886l0.574171 208.062171s-0.610743 1.985829-0.917943 3.104915c-9.216-6.557257-20.1216-13.315657-34.486857-19.313372-39.720229-16.585143-74.027886-23.562971-90.810514-23.793371-16.786286-0.234057-6.560914 19.697371-16.208457 29.7728-5.057829 5.277257-18.552686 7.720229-26.441143 11.264-7.160686 3.218286 2.874514 16.782629 2.874514 16.782628s115.309714 16.932571 124.149029 35.061029c6.944914 14.244571-72.32 31.992686-80.925257 34.026057-8.608914 2.033371-11.739429 10.2912-2.186972 9.654857 14.456686-0.961829 40.309029-5.9392 65.064229-12.068571 28.474514-5.855086 60.463543-15.934171 82.5344-33.912686 48.555886-39.552 43.797943-115.755886 43.797943-115.755886l-0.574172-145.759085s-0.219429-1.927314-1.495771-2.987886c-1.276343-1.064229-3.679086-1.148343-3.679086-1.148343z m119.434972 51.265829s-4.615314-0.131657-6.549943 1.495771l-1.609143 5.288229-0.577829 143.114971s-0.394971 2.260114 1.495772 3.792457c1.890743 1.532343 2.816 1.579886 4.714057 1.148343 6.154971-1.400686 17.729829-5.138286 30.116571-15.173486 16.201143-13.121829 26.079086-29.611886 28.968229-36.209371 0.427886-0.976457-0.117029-99.547429-0.117029-99.547429s-0.453486-2.146743-1.952914-3.104914c-1.499429-0.954514-4.022857-0.804571-4.022857-0.804571h-50.464914zM311.917714 573.981257c-16.786286 0.234057-51.090286 7.094857-90.810514 23.68-39.720229 16.5888-59.651657 40.586971-60.350171 42.762972-0.694857 2.179657 0.131657 29.220571 39.544685 44.485485 28.324571 10.975086 85.928229 24.0128 110.354286 25.636572 9.552457 0.632686 6.421943-7.738514-2.186971-9.771886-8.605257-2.033371-87.870171-19.781486-80.925258-34.026057 8.839314-18.128457 124.149029-35.061029 124.149029-35.061029s10.0352-13.560686 2.874514-16.782628c-7.888457-3.543771-21.383314-5.983086-26.441143-11.264-9.647543-10.075429 0.577829-29.889829-16.208457-29.659429zM241.309257 850.805029h-37.266286l-0.109714 4.183771 13.165714 0.5632c0.234057 7.431314 0.354743 14.654171 0.354743 22.187886v6.710857c-3.441371 0.822857-6.8864 1.236114-10.8032 1.236114-17.565257 0-30.145829-13.520457-30.145828-36.0192 0-23.738514 13.056-35.9168 30.858971-35.9168 4.2752 0 7.873829 2.3808 11.435886 3.927772l6.008686 15.6672 6.421942-0.245029 0.131658-17.704229c-7.358171-3.715657-15.689143-5.877029-26.133943-5.877028-27.538286 0-46.409143 15.791543-46.409143 40.045714 0 24.667429 18.395429 40.352914 45.696 40.352914 11.040914 0 19.584-2.271086 28.7232-6.8096v-5.057828c0-8.155429 0.069486-15.060114 0.186514-22.286629l7.848229-0.980114 0.036571-3.978971zM459.882057 881.5872a986.174171 986.174171 0 0 1-0.212114-17.7152V852.845714c0-12.112457-5.701486-15.798857-15.630629-15.798857-6.864457 0-14.357943 2.56-21.010285 9.157486l-0.318172-9.991314-1.481143-0.811886-18.896457 5.434514-0.0768 3.243886 7.04-0.182857c0.318171 4.337371 0.424229 7.592229 0.424229 13.469257v6.506057c0 4.973714-0.106057 12.474514-0.212115 17.627429l-7.709257 0.811885v2.801372h28.935315v-2.801372l-7.676343-0.735085c-0.1024-5.152914 0.603429-12.730514 0.603428-17.704229l-0.058514-10.752c5.174857-4.066743 11.563886-8.872229 15.469714-8.872229 5.701486 0 6.765714 0.190171 6.765715 8.053029v11.5712c0 5.152914-0.106057 12.565943-0.318172 17.627429l-7.391086 0.811885v2.801372h28.935315v-2.801372l-7.182629-0.724114zM542.1824 855.968914c-7.215543-2.245486-9.278171-4.670171-9.278171-8.440685 0-4.395886 3.562057-7.2704 9.746285-7.2704 2.717257 0 4.871314 0.5376 7.120457 1.616457l2.907429 9.695085h4.776229l0.658285-10.773942c-5.156571-2.600229-9.746286-4.037486-15.744-4.037486-12.836571 0-19.8656 6.641371-19.8656 15.261257 0 7.2704 4.9664 11.578514 13.026743 14.0032l5.152914 1.6128c7.306971 2.336914 9.464686 4.849371 9.464686 8.799086 0 4.937143-3.935086 7.720229-11.432228 7.720228-3.093943 0-5.716114-0.449829-8.151772-1.437257l-2.625828-10.861714h-5.434515l-0.373028 11.669943c5.339429 2.691657 10.587429 4.128914 17.334857 4.128914 13.7728 0 21.456457-6.282971 21.456457-15.440457 0-6.912-4.030171-11.669943-13.867886-14.811429l-4.871314-1.4336zM670.976 882.234514a1102.189714 1102.189714 0 0 1-0.201143-18.399085v-11.264c0-13.048686-6.517029-15.8464-15.989028-15.8464-7.281371 0-12.858514 3.364571-18.8416 9.841371l0.431542-21.781943 0.398629-14.9248-1.495771-0.8448-19.741258 4.033829v2.629485l8.074972 0.5632v47.594058c0 5.163886-0.098743 12.957257-0.197486 18.307657l-7.277714 0.8448v2.907428h27.117714v-2.907428l-6.381714-0.753372a580.443429 580.443429 0 0 1-0.296229-18.399085l-0.347428-13.348572c4.885943-4.224 9.647543-6.531657 13.637485-6.531657 5.185829 0 7.946971-0.303543 7.946972 7.866514v12.013715c0 5.3504-0.098743 13.048686-0.201143 18.307657l-7.178971 0.8448v2.907428h27.322514v-2.907428l-6.780343-0.753372zM749.454629 824.634514c5.090743 0 9.354971-2.965943 9.354971-7.076571 0-4.3008-4.264229-7.171657-9.354971-7.171657-5.0944 0-9.358629 2.870857-9.358629 7.171657 0 4.110629 4.264229 7.076571 9.358629 7.076571z m8.407771 59.567543a989.878857 989.878857 0 0 1-0.237714-18.7392v-14.343314l0.237714-14.913829-1.660343-0.863085-24.042057 5.449142v2.581943l9.592686 0.768c0.237714 4.779886 0.3584 8.411429 0.3584 14.533486v6.787657c0 5.258971-0.120686 13.194971-0.237715 18.644114l-8.645485 0.863086v2.962286h32.570514v-2.962286l-7.936-0.768zM311.811657 858.133943c0.574171-12.682971 5.032229-14.222629 11.0592-14.621257 1.283657-0.084114 8.689371-0.058514 8.7808 9.852343 0.032914 3.346286 0.965486 4.768914-3.445028 4.768914h-16.394972z m33.173943 3.214628c0.479086-1.477486 0.672914-3.126857 0.672914-5.386971 0-10.945829-7.957943-19.024457-21.0944-19.024457-13.421714 0-26.079086 8.949029-26.079085 24.586971 0 15.809829 10.9312 24.671086 25.984 24.671086 9.490286 0 16.778971-4.085029 20.615314-11.209143l-1.92-1.214171c-3.3536 4.081371-7.478857 6.688914-14.379886 6.688914-9.300114 0-16.5888-5.822171-16.969143-19.112229h33.170286zM877.981257 882.987886a986.989714 986.989714 0 0 1-0.212114-17.718857v-11.026286c0-12.112457-5.705143-15.798857-15.630629-15.798857-6.864457 0-14.3616 2.56-21.013943 9.157485l-0.318171-9.991314-1.477486-0.811886-18.896457 5.434515-0.0768 3.243885 7.04-0.182857c0.318171 4.337371 0.424229 7.592229 0.424229 13.469257v6.506058c0 4.973714-0.106057 12.474514-0.212115 17.627428l-7.709257 0.811886v2.801371h28.935315v-2.801371l-7.676343-0.735086c-0.106057-5.152914 0.599771-12.730514 0.599771-17.704228l-0.058514-10.752c5.174857-4.066743 11.563886-8.868571 15.473371-8.868572 5.701486 0 6.762057 0.186514 6.762057 8.049372v11.5712c0 5.152914-0.106057 12.565943-0.314514 17.627428l-7.394743 0.811886v2.801371h28.935315v-2.801371l-7.178972-0.720457z" p-id="5176"/>
</svg>
